<svg xmlns="http://www.w3.org/2000/svg" width="24.749" height="23" viewBox="0 0 24.749 23"><defs><style>.a,.b{fill:none;}.a{stroke:#70583e;stroke-miterlimit:10;}.b{stroke:rgba(0,0,0,0);}</style></defs><g transform="translate(-334.5 -12.5)"><path class="a" d="M4.546,5.632h18.1a.739.739,0,0,1,.7.969L20.25,16.316a.739.739,0,0,1-.7.508H8.157a.738.738,0,0,1-.705-.519L3.229,1.019A.74.74,0,0,0,2.524.5H0" transform="translate(335 12.76)"/><ellipse class="a" cx="1.859" cy="1.859" rx="1.859" ry="1.859" transform="translate(342.038 31.283)"/><ellipse class="a" cx="1.859" cy="1.859" rx="1.859" ry="1.859" transform="translate(351.94 31.283)"/><path class="b" d="M0,0H23.749V21.2H0Z" transform="translate(335 13)"/></g></svg>