<svg xmlns="http://www.w3.org/2000/svg" xmlns:xlink="http://www.w3.org/1999/xlink" width="20" height="20" viewBox="0 0 20 20"><defs><style>.a{fill:none;}.b{clip-path:url(#a);}.c{fill:#fff;}.d{fill:#816c4f;}</style><clipPath id="a"><rect class="a" width="20" height="20"/></clipPath></defs><g class="b"><path class="c" d="M19.581,3.122A3.239,3.239,0,0,0,17.813.6C16.253,0,10,0,10,0S3.745,0,2.185.6A3.239,3.239,0,0,0,.417,3.122,52.82,52.82,0,0,0,0,10a52.82,52.82,0,0,0,.418,6.877A3.24,3.24,0,0,0,2.185,19.4C3.745,20,10,20,10,20s6.254,0,7.814-.6a3.239,3.239,0,0,0,1.768-2.526A52.8,52.8,0,0,0,20,10a52.8,52.8,0,0,0-.418-6.877" transform="translate(0.001 0.001)"/><path class="d" d="M45.989,45.363l7.423-4.286-7.423-4.286Z" transform="translate(-38.847 -31.077)"/></g></svg>