<svg xmlns="http://www.w3.org/2000/svg" xmlns:xlink="http://www.w3.org/1999/xlink" width="22" height="22" viewBox="0 0 22 22"><defs><style>.a{fill:none;}.b{clip-path:url(#a);}.c{fill:#efefef;}.d{fill:#8fb4d3;}.e{fill:#fb9f00;}.f{fill:#910000;}</style><clipPath id="a"><rect class="a" width="22" height="22"/></clipPath></defs><g transform="translate(0 0)"><g class="b" transform="translate(0 0)"><path class="c" d="M29.582.635,23.411,5.15V22.221h1.745l4.993-5V20.6h0V1.865a1.635,1.635,0,0,0-.566-1.23" transform="translate(-8.148 -0.221)"/><path class="d" d="M0,26.059V29.43a1.643,1.643,0,0,0,1.462,1.625h9.9Z" transform="translate(0 -9.056)"/><path class="e" d="M21.851.414A1.625,1.625,0,0,0,20.774,0H2.06A1.628,1.628,0,0,0,1.2.252L15.679,4.93Z" transform="translate(-0.417 0)"/><path class="f" d="M26.087,31.056H29.62a1.644,1.644,0,0,0,1.46-1.625V26.059Z" transform="translate(-9.08 -9.056)"/></g></g></svg>