<svg xmlns="http://www.w3.org/2000/svg" width="328" height="38" viewBox="0 0 328 38"><defs><style>.a{fill:#fae300;}.b,.c{fill:#391b1b;}.c{font-size:17px;font-family:AppleSDGothicNeoM00;}</style></defs><g transform="translate(-24 -220)"><rect class="a" width="328" height="38" rx="7" transform="translate(24 220)"/><path class="b" d="M65.885,77.59c-5.75,0-10.41,3.684-10.41,8.23,0,2.958,1.975,5.551,4.938,7-.218.813-.788,2.945-.9,3.4-.141.566.208.559.436.406.179-.119,2.853-1.937,4.006-2.721a13.189,13.189,0,0,0,1.932.142c5.749,0,10.41-3.685,10.41-8.23s-4.661-8.23-10.41-8.23" transform="translate(-12.966 152.112)"/><text class="c" transform="translate(188 245)"><tspan x="-61.056" y="0">카카오로 시작하기</tspan></text></g></svg>