<svg xmlns="http://www.w3.org/2000/svg" width="328" height="38" viewBox="0 0 328 38"><defs><style>.a{fill:#fff;}.a,.d{stroke:#816c4f;}.b,.c{fill:#816c4f;}.b{font-size:17px;font-family:AppleSDGothicNeoM00;}.d,.f{fill:none;}.d{stroke-miterlimit:10;}.e{stroke:none;}</style></defs><g transform="translate(-24 -316)"><g class="a" transform="translate(24 316)"><rect class="e" width="328" height="38" rx="7"/><rect class="f" x="0.5" y="0.5" width="327" height="37" rx="6.5"/></g><text class="b" transform="translate(188 340)"><tspan x="-61.056" y="0">이메일로 시작하기</tspan></text><g transform="translate(43 327)"><path class="c" d="M17.725,1A.275.275,0,0,1,18,1.275v13.39a.275.275,0,0,1-.275.274H1.276A.275.275,0,0,1,1,14.665V1.275A.276.276,0,0,1,1.276,1H17.725m0-1H1.276A1.276,1.276,0,0,0,0,1.275v13.39a1.275,1.275,0,0,0,1.276,1.274H17.725A1.274,1.274,0,0,0,19,14.665V1.275A1.275,1.275,0,0,0,17.725,0"/><path class="d" d="M18.49.382,9.436,8.671.51.509"/></g></g></svg>