<svg xmlns="http://www.w3.org/2000/svg" width="64.163" height="14.998" viewBox="0 0 64.163 14.998"><defs><style>.a{fill:#fff;}</style></defs><g transform="translate(130 -1)"><g transform="translate(-130 1)"><path class="a" d="M87.226,11.846A5.921,5.921,0,0,1,85.962,13.2a6,6,0,0,1-1.624.9,5.724,5.724,0,0,1-4.153-.129,5.817,5.817,0,0,1-3.061-3.046,5.573,5.573,0,0,1,0-4.432,5.817,5.817,0,0,1,3.061-3.046,5.721,5.721,0,0,1,4.153-.129,6.031,6.031,0,0,1,1.624.9,5.932,5.932,0,0,1,1.265,1.359,5.853,5.853,0,0,1,.706,1.441h1.455a6.83,6.83,0,0,0-.853-2.013A7.819,7.819,0,0,0,86.953,3.2a6.944,6.944,0,0,0-2.084-1.2,7.054,7.054,0,0,0-2.458-.429,7.115,7.115,0,0,0-7.186,7.149,7.039,7.039,0,0,0,.561,2.817,7.132,7.132,0,0,0,6.625,4.332,7.043,7.043,0,0,0,2.458-.429,6.944,6.944,0,0,0,2.084-1.2,7.81,7.81,0,0,0,1.581-1.816,6.825,6.825,0,0,0,.853-2.013H87.932a5.855,5.855,0,0,1-.706,1.442" transform="translate(-41.791 -0.865)"/><path class="a" d="M12.287,2.77A7.237,7.237,0,0,0,7.186.7a6.98,6.98,0,0,0-3.248.787,7.281,7.281,0,0,0-2.5,2.074V0H0V7.847a7.044,7.044,0,0,0,.561,2.817A7.132,7.132,0,0,0,7.186,15a7.1,7.1,0,0,0,6.625-4.333,7.044,7.044,0,0,0,.561-2.817A7.168,7.168,0,0,0,12.287,2.77m.187,7.294a5.818,5.818,0,0,1-3.061,3.046,5.653,5.653,0,0,1-4.455,0A5.818,5.818,0,0,1,1.9,10.064a5.576,5.576,0,0,1,0-4.434A5.815,5.815,0,0,1,4.958,2.585a5.643,5.643,0,0,1,4.455,0,5.815,5.815,0,0,1,3.061,3.046,5.571,5.571,0,0,1,0,4.434" transform="translate(0 0)"/><path class="a" d="M49.9,3.638A7.184,7.184,0,0,0,37.614,8.715a7.041,7.041,0,0,0,.561,2.817A7.131,7.131,0,0,0,44.8,15.864a6.976,6.976,0,0,0,3.248-.787A7.276,7.276,0,0,0,50.548,13v2.86h1.437V8.715A7.165,7.165,0,0,0,49.9,3.638m.187,7.292a5.82,5.82,0,0,1-3.062,3.046,5.653,5.653,0,0,1-4.454,0,5.817,5.817,0,0,1-3.061-3.046,5.574,5.574,0,0,1,0-4.432,5.814,5.814,0,0,1,3.061-3.045,5.643,5.643,0,0,1,4.454,0A5.817,5.817,0,0,1,50.088,6.5a5.569,5.569,0,0,1,0,4.432" transform="translate(-20.896 -0.865)"/><path class="a" d="M126.508,8H113.989a5.376,5.376,0,0,1,.41-1.5,5.817,5.817,0,0,1,3.061-3.046A5.511,5.511,0,0,1,119.584,3h0c.035,0,.07-.005.105-.005h0a5.681,5.681,0,0,1,3.638,1.23,5.94,5.94,0,0,1,1.265,1.358c.059.088.109.18.162.271h1.588c-.025-.054-.049-.108-.074-.162h.009a6.531,6.531,0,0,0-.383-.709,7.809,7.809,0,0,0-1.581-1.816,6.945,6.945,0,0,0-2.084-1.2,7.508,7.508,0,0,0-2.539-.4h0a7.073,7.073,0,0,0-6.625,4.347A6.946,6.946,0,0,0,112.537,8c-.021.218-.03.44-.032.664v.1c0,.181.012.359.025.536a.134.134,0,0,0,.132.127h12.517a5.379,5.379,0,0,1-.41,1.5,5.814,5.814,0,0,1-3.061,3.046,5.52,5.52,0,0,1-2.228.458,7.013,7.013,0,0,1-2.172-.3,6.031,6.031,0,0,1-1.624-.9,5.932,5.932,0,0,1-1.265-1.359c-.03-.045-.057-.091-.085-.137h-1.573a.016.016,0,0,0-.017.008.027.027,0,0,0,0,.024,6.482,6.482,0,0,0,.367.676,7.819,7.819,0,0,0,1.581,1.816,6.945,6.945,0,0,0,2.084,1.2,8.487,8.487,0,0,0,2.7.4,7.075,7.075,0,0,0,6.626-4.347,6.971,6.971,0,0,0,.526-2.087c.021-.218.031-.44.032-.664v-.1c0-.183-.013-.362-.025-.54A.133.133,0,0,0,126.508,8" transform="translate(-62.501 -0.865)"/></g></g></svg>