<svg xmlns="http://www.w3.org/2000/svg" xmlns:xlink="http://www.w3.org/1999/xlink" width="20" height="20" viewBox="0 0 20 20"><defs><style>.a{fill:none;}.b{clip-path:url(#a);}.c{fill:#fff;}</style><clipPath id="a"><rect class="a" width="20" height="20"/></clipPath></defs><g transform="translate(0 0)"><g class="b" transform="translate(0 0)"><path class="c" d="M13.838,0H6.162A6.162,6.162,0,0,0,0,6.164v7.675A6.161,6.161,0,0,0,6.162,20h7.676A6.162,6.162,0,0,0,20,13.839V6.164A6.163,6.163,0,0,0,13.838,0M18.08,13.1A4.979,4.979,0,0,1,13.1,18.081H6.9A4.979,4.979,0,0,1,1.918,13.1V6.9A4.98,4.98,0,0,1,6.9,1.919h6.2A4.981,4.981,0,0,1,18.08,6.9Z" transform="translate(0 0)"/><path class="c" d="M11.06,5.522a5.268,5.268,0,1,0,5.267,5.267A5.267,5.267,0,0,0,11.06,5.522m0,8.437a3.169,3.169,0,1,1,3.169-3.169,3.17,3.17,0,0,1-3.169,3.169" transform="translate(-0.791 -0.754)"/><path class="c" d="M18.7,5.214a1.34,1.34,0,1,1-1.341-1.34A1.341,1.341,0,0,1,18.7,5.214" transform="translate(-2.189 -0.529)"/></g></g></svg>