<svg xmlns="http://www.w3.org/2000/svg" xmlns:xlink="http://www.w3.org/1999/xlink" width="34.554" height="8.08" viewBox="0 0 34.554 8.08"><defs><style>.a{fill:none;}.b{clip-path:url(#a);}.c{fill:#fff;}</style><clipPath id="a"><rect class="a" width="34.554" height="8.08"/></clipPath></defs><g transform="translate(2.049 0.479)"><g class="b" transform="translate(-2.049 -0.48)"><path class="c" d="M81.66,7.106a3.178,3.178,0,0,1-1.549,1.217,3.054,3.054,0,0,1-2.227-.069,3.127,3.127,0,0,1-1.641-1.641,3.017,3.017,0,0,1,0-2.388,3.127,3.127,0,0,1,1.641-1.641,3.053,3.053,0,0,1,2.227-.07A3.229,3.229,0,0,1,80.982,3a3.182,3.182,0,0,1,1.056,1.509h.78a3.69,3.69,0,0,0-.457-1.085,4.208,4.208,0,0,0-.848-.979A3.719,3.719,0,0,0,80.4,1.8a3.764,3.764,0,0,0-1.318-.231,3.83,3.83,0,0,0-3.852,3.852,3.82,3.82,0,0,0,3.852,3.852A3.759,3.759,0,0,0,80.4,9.039a3.719,3.719,0,0,0,1.117-.647,4.2,4.2,0,0,0,.848-.979,3.687,3.687,0,0,0,.457-1.085h-.78a3.163,3.163,0,0,1-.378.777" transform="translate(-57.197 -1.191)"/><path class="c" d="M6.587,1.492A3.87,3.87,0,0,0,3.852.375,3.727,3.727,0,0,0,2.111.8,3.908,3.908,0,0,0,.771,1.916V0H0V4.228A3.82,3.82,0,0,0,3.852,8.08,3.82,3.82,0,0,0,7.7,4.228,3.871,3.871,0,0,0,6.587,1.492m.1,3.93A3.127,3.127,0,0,1,5.046,7.063a3.017,3.017,0,0,1-2.388,0A3.127,3.127,0,0,1,1.017,5.422a3.018,3.018,0,0,1,0-2.388A3.125,3.125,0,0,1,2.658,1.392a3.012,3.012,0,0,1,2.388,0A3.125,3.125,0,0,1,6.688,3.033a3.015,3.015,0,0,1,0,2.388" transform="translate(0 0)"/><path class="c" d="M44.2,2.682a3.868,3.868,0,1,0-4.253,6.287,3.811,3.811,0,0,0,1.518.3,3.725,3.725,0,0,0,1.741-.424,3.905,3.905,0,0,0,1.341-1.117V9.27h.77V5.418A3.871,3.871,0,0,0,44.2,2.682m.1,3.93A3.128,3.128,0,0,1,42.66,8.253a3.016,3.016,0,0,1-2.388,0,3.127,3.127,0,0,1-1.641-1.641,3.018,3.018,0,0,1,0-2.388,3.125,3.125,0,0,1,1.641-1.641,3.011,3.011,0,0,1,2.388,0A3.127,3.127,0,0,1,44.3,4.223a3.015,3.015,0,0,1,0,2.388" transform="translate(-28.599 -1.19)"/><path class="c" d="M120.012,5.032H113.3a2.908,2.908,0,0,1,.22-.809,3.126,3.126,0,0,1,1.641-1.641,2.942,2.942,0,0,1,1.138-.244h0l.056,0h0a3.036,3.036,0,0,1,1.95.663,3.194,3.194,0,0,1,.678.732c.032.047.058.1.087.146h.852l-.04-.087h.005a3.525,3.525,0,0,0-.205-.382,4.2,4.2,0,0,0-.848-.979,3.718,3.718,0,0,0-1.117-.647,4.007,4.007,0,0,0-1.361-.216h0A3.795,3.795,0,0,0,112.8,3.907a3.759,3.759,0,0,0-.282,1.125c-.011.118-.016.237-.017.358v.055c0,.1.006.194.013.289a.072.072,0,0,0,.071.069h6.71a2.911,2.911,0,0,1-.22.809,3.125,3.125,0,0,1-1.641,1.641,2.946,2.946,0,0,1-1.194.247,3.742,3.742,0,0,1-1.165-.162,3.229,3.229,0,0,1-.871-.485,3.19,3.19,0,0,1-.678-.732c-.016-.024-.03-.049-.046-.074h-.843a.009.009,0,0,0-.009,0,.014.014,0,0,0,0,.013,3.5,3.5,0,0,0,.2.365,4.207,4.207,0,0,0,.848.979,3.718,3.718,0,0,0,1.117.647,4.529,4.529,0,0,0,1.45.216A3.824,3.824,0,0,0,120.078,5.8c.011-.118.017-.237.017-.358V5.39c0-.1-.007-.195-.014-.291a.071.071,0,0,0-.07-.066" transform="translate(-85.542 -1.19)"/></g></g></svg>